<svg xmlns="http://www.w3.org/2000/svg" viewBox="0 0 500 500"><g id="freepik--Floor--inject-2"><ellipse id="freepik--floor--inject-2" cx="247.99" cy="346.19" rx="227.06" ry="125.03" style="fill:#f5f5f5"></ellipse></g><g id="freepik--Shadow--inject-2"><ellipse id="freepik--shadow--inject-2" cx="185.18" cy="348.77" rx="42.54" ry="24.55" style="fill:#e0e0e0"></ellipse><path id="freepik--shadow--inject-2" d="M347.81,342.38l46.4-26.78a5.6,5.6,0,0,1,4.6-.21l47.31,27.31c1.3.6,1.35,1.67.11,2.39L399,372.32a4.39,4.39,0,0,1-4.36-.23L347.67,345.2A1.56,1.56,0,0,1,347.81,342.38Z" style="fill:#e0e0e0"></path><path id="freepik--shadow--inject-2" d="M303.64,310.62,350,283.84a5.62,5.62,0,0,1,4.61-.21L402,310.94c1.3.6,1.35,1.67.11,2.38l-47.29,27.23a4.34,4.34,0,0,1-4.35-.22L303.5,313.44A1.55,1.55,0,0,1,303.64,310.62Z" style="fill:#e0e0e0"></path><path id="freepik--shadow--inject-2" d="M350.58,432.28l-128-74c-1.31-.75-1.31-2,0-2.73l76.67-44.35a5.22,5.22,0,0,1,4.73,0l128,74c1.31.75,1.31,2,0,2.73l-76.68,44.35A5.19,5.19,0,0,1,350.58,432.28Z" style="fill:#e0e0e0"></path></g><g id="freepik--Plants--inject-2"><g id="freepik--plants--inject-2"><path d="M439.88,322.09c.48-6,5.81-18,12.65-25.32s17.07-12.18,23.82-9.25c6.29,2.73,4.91,11.16-3.39,16.15s-20.65,11.1-24.88,20.54l-8.2,11.34Z" style="fill:#C44AD9"></path><path d="M439.88,322.09c.48-6,5.81-18,12.65-25.32s17.07-12.18,23.82-9.25c6.29,2.73,4.91,11.16-3.39,16.15s-20.65,11.1-24.88,20.54l-8.2,11.34Z" style="opacity:0.2"></path><path d="M438.78,330.25a.43.43,0,0,0,.42-.32c5.66-20.12,23.53-35.41,33.73-38.29a.44.44,0,1,0-.24-.84c-10.39,2.93-28.59,18.47-34.33,38.89a.44.44,0,0,0,.3.55Z" style="fill:#fff"></path><path d="M440.78,343.59c1.23-3.29,5.79-8.52,12.81-12.57,7.77-4.49,17.27-6.08,19.73-9.86,3-4.53-.68-9.34-8.31-9s-21.76,9.57-25.13,24.93Z" style="fill:#C44AD9"></path><path d="M439.6,339.93a.45.45,0,0,0,.4-.25c7.68-17,21.54-22.09,27.79-22.4a.44.44,0,0,0,.42-.46.43.43,0,0,0-.46-.41c-6.92.33-20.72,5.54-28.55,22.9a.45.45,0,0,0,.22.59A.57.57,0,0,0,439.6,339.93Z" style="fill:#fff"></path></g></g><g id="freepik--characters-with-desk--inject-2"><g id="freepik--Boy--inject-2"><path d="M378.68,264.9v46.7a1.3,1.3,0,0,0,.59,1l1.59.92a1.29,1.29,0,0,0,1.18,0l1.59-.92a1.31,1.31,0,0,0,.6-1V264.9a.69.69,0,0,0-.69-.68h-4.18A.68.68,0,0,0,378.68,264.9Z" style="fill:#263238"></path><path d="M383.54,264.22h-1.41a.69.69,0,0,0-.68.68v48.3c0,.37.27.53.59.34l1.59-.92a1.31,1.31,0,0,0,.6-1V264.9A.69.69,0,0,0,383.54,264.22Z" style="fill:#37474f"></path><path d="M351.88,280.31V327a1.33,1.33,0,0,0,.59,1l1.6.92a1.29,1.29,0,0,0,1.18,0l1.59-.92a1.3,1.3,0,0,0,.59-1V280.31a.68.68,0,0,0-.68-.68h-4.18A.69.69,0,0,0,351.88,280.31Z" style="fill:#263238"></path><path d="M356.75,279.63h-1.41a.68.68,0,0,0-.68.68v48.3c0,.37.26.53.59.34l1.59-.92a1.3,1.3,0,0,0,.59-1V280.31A.68.68,0,0,0,356.75,279.63Z" style="fill:#37474f"></path><path d="M353.66,246a2.53,2.53,0,0,1-.51,1.85,2.49,2.49,0,0,1-1.67.94l-.3,0a2.5,2.5,0,0,1-2.49-2.19c-1.44-11.53.61-37.31,5.54-51.84.51-1.49,1.95-1.82,3.32-1h0c1,.6,1.79,1.51,1.4,2.65C354.22,210.08,352.27,234.94,353.66,246Z" style="fill:#455a64"></path><path d="M382.7,252.67a1.42,1.42,0,0,0,.5-.08,1.6,1.6,0,0,0,1-2c-3.7-11.23-21.85-21.22-33.57-21.22a1.6,1.6,0,1,0,0,3.19c10.6,0,27.31,9.22,30.54,19A1.58,1.58,0,0,0,382.7,252.67Z" style="fill:#37474f"></path><path d="M384.41,238.11a1.42,1.42,0,0,0,.5-.08,1.59,1.59,0,0,0,1-2c-3.84-11.67-22.54-21.11-34.21-19.9a1.59,1.59,0,0,0,.33,3.17c10.34-1.06,27.49,7.51,30.85,17.73A1.58,1.58,0,0,0,384.41,238.11Z" style="fill:#37474f"></path><path d="M388,226.58a1.64,1.64,0,0,0,.64-.14,1.59,1.59,0,0,0,.82-2.1c-5.5-12.5-25-22.78-35.6-21.31a1.6,1.6,0,1,0,.44,3.16c9.34-1.3,27.33,8.26,32.24,19.43A1.6,1.6,0,0,0,388,226.58Z" style="fill:#37474f"></path><path d="M392,213.19a2.5,2.5,0,0,1,1,3.16c-5.76,13.46-8.8,29.89-8.8,47.88v2.42l-.19.2a1,1,0,0,1-.75.31,3,3,0,0,1-1.05-.26c-.16,0-.42-.15-.51-.16a2.51,2.51,0,0,1-2.51-2.51c0-18.66,3.18-35.77,9.22-49.86a2.5,2.5,0,0,1,3.55-1.19Z" style="fill:#455a64"></path><path d="M384.23,266.06v.61a4,4,0,0,1-1.48,2.89L356.13,288.8a3.05,3.05,0,0,1-3.05.16l-37.54-21.67a3.51,3.51,0,0,1-1.58-2.74v-.63a3.09,3.09,0,0,1,1.66-2.58l33.68-15.56a3.94,3.94,0,0,1,3.24.15l30.11,17.4A3.48,3.48,0,0,1,384.23,266.06Z" style="fill:#37474f"></path><path d="M382.65,263.33l-30.11-17.4a3.94,3.94,0,0,0-3.24-.15l-33.68,15.56c-.92.42-.95,1.17-.08,1.67l37.54,21.68a3.05,3.05,0,0,0,3.05-.16l26.62-19.22A1.09,1.09,0,0,0,382.65,263.33Z" style="fill:#C44AD9"></path><rect x="334.2" y="327.4" width="7.5" height="12.84" style="fill:#ffa8a7"></rect><polygon points="319.98 324.27 312.49 324.53 312.11 310.95 319.61 310.69 319.98 324.27" style="fill:#ffa8a7"></polygon><path d="M334.2,336.87v-1.33c-.78.34-4.33,7.84-7.56,10.79-2.57,2.34-7.09,5.55-7,7.77.14,2.87,4.23,4.14,7.76,3.32,2.76-.65,6.7-2.32,8.59-4.36s2.5-4.72,3.49-6.06,3.26-2.82,3.79-4.37c.3-.85-.05-2.71-.46-4.28s-.79-3-1.28-2.89v.89a6.42,6.42,0,0,1-4.08,1.38C336.28,337.77,334.19,337.78,334.2,336.87Z" style="fill:#263238"></path><path d="M312.41,322.22c-.39,0-.71.56-1.57,1.49a20.2,20.2,0,0,1-5,3.14c-2.81,1.4-10.16,3.29-12.63,4.4-1.54.7-1.15,3.09,1,4.44,1.64,1,6.83,2,11.46.94,2.51-.56,6.35-2.31,8.22-2.6,2.06-.33,5.84-.72,7.37-1.78s.92-3.31.49-5.25c-.48-2.11-1.15-5.35-1.85-5.21l0,.67c-.9,1.36-5.49,1.92-7.47.92Z" style="fill:#263238"></path><path d="M371.9,249.34c1.64,11.58-.57,13.81-11.58,24.91-5.93,6-15.47,14.72-15.47,14.72s.14,3.7.21,12c.07,7.31-3,31.09-3,31.09s-5,2.1-8.39-.08c0,0-1.54-17.69-2.38-26.91-1.13-12.5-1.72-18.76-1.08-21.46.45-1.9,11.15-19.75,11.15-19.75l3.94-2.5L320.77,277a81.44,81.44,0,0,1,.69,10.58c-.26,9.92-1.48,29.73-1.48,29.73s-5.45,2.44-8.16.34c0,0-6.86-43.34-6.86-46.89,0-5.41,23.47-21.54,27.91-25.3,2.54-2.14,5.37-4.43,5.37-4.43Z" style="fill:#37474f"></path><path d="M345.32,261.36s-3.58-1.78-6.78-8.56a17.11,17.11,0,0,0,2.2,6.95c1.43,2.23-20,17.21-20,17.21Z" style="fill:#263238"></path></g><g id="freepik--Girl--inject-2"><path d="M435.32,297.73v46.69a1.33,1.33,0,0,0,.59,1l1.59.92a1.38,1.38,0,0,0,1.19,0l1.59-.92a1.3,1.3,0,0,0,.59-1V297.73a.68.68,0,0,0-.68-.68H436A.68.68,0,0,0,435.32,297.73Z" style="fill:#263238"></path><path d="M440.19,297.05h-1.41a.67.67,0,0,0-.68.68V346c0,.38.26.53.59.35l1.59-.92a1.3,1.3,0,0,0,.59-1V297.73A.68.68,0,0,0,440.19,297.05Z" style="fill:#37474f"></path><path d="M408.53,313.14v46.69a1.3,1.3,0,0,0,.59,1l1.59.91a1.29,1.29,0,0,0,1.18,0l1.6-.91a1.33,1.33,0,0,0,.59-1V313.14a.68.68,0,0,0-.69-.68h-4.18A.67.67,0,0,0,408.53,313.14Z" style="fill:#263238"></path><path d="M413.39,312.46H412a.68.68,0,0,0-.69.68v48.29c0,.38.27.53.59.34l1.6-.91a1.33,1.33,0,0,0,.59-1V313.14A.68.68,0,0,0,413.39,312.46Z" style="fill:#37474f"></path><path d="M410.31,278.86a2.51,2.51,0,0,1-2.18,2.8l-.31,0a2.51,2.51,0,0,1-2.49-2.2c-1.44-11.52.62-37.31,5.55-51.83.5-1.5,1.95-1.82,3.31-1h0c1,.6,1.79,1.51,1.4,2.64C410.86,242.91,408.92,267.76,410.31,278.86Z" style="fill:#455a64"></path><path d="M439.35,285.5a1.8,1.8,0,0,0,.5-.08,1.6,1.6,0,0,0,1-2c-3.69-11.22-21.85-21.21-33.57-21.21a1.59,1.59,0,0,0,0,3.18c10.6,0,27.32,9.23,30.54,19A1.61,1.61,0,0,0,439.35,285.5Z" style="fill:#37474f"></path><path d="M441.06,270.94a1.8,1.8,0,0,0,.5-.08,1.59,1.59,0,0,0,1-2c-3.83-11.67-22.54-21.11-34.21-19.91a1.59,1.59,0,0,0,.33,3.17c10.34-1.05,27.49,7.51,30.86,17.73A1.58,1.58,0,0,0,441.06,270.94Z" style="fill:#37474f"></path><path d="M444.61,259.4a1.63,1.63,0,0,0,.64-.13,1.59,1.59,0,0,0,.81-2.1c-5.49-12.51-25-22.78-35.6-21.31a1.59,1.59,0,1,0,.44,3.15c9.34-1.29,27.33,8.26,32.24,19.44A1.6,1.6,0,0,0,444.61,259.4Z" style="fill:#37474f"></path><path d="M448.66,246a2.51,2.51,0,0,1,1,3.17c-5.76,13.45-8.79,29.89-8.79,47.88v2.41l-.19.2a1,1,0,0,1-.76.31,3,3,0,0,1-1.05-.25,2.24,2.24,0,0,0-.51-.16,2.5,2.5,0,0,1-2.5-2.51c0-18.66,3.17-35.77,9.21-49.86a2.5,2.5,0,0,1,3.55-1.19Z" style="fill:#455a64"></path><path d="M440.87,298.89v.61a4,4,0,0,1-1.48,2.89l-26.61,19.24a3,3,0,0,1-3,.15l-37.54-21.67a3.48,3.48,0,0,1-1.58-2.73v-.63a3.09,3.09,0,0,1,1.65-2.58L406,278.61a3.92,3.92,0,0,1,3.23.14l30.11,17.4A3.51,3.51,0,0,1,440.87,298.89Z" style="fill:#37474f"></path><path d="M439.29,296.15l-30.11-17.4a3.92,3.92,0,0,0-3.23-.14l-33.69,15.56c-.91.42-.94,1.17-.07,1.67l37.54,21.67a3,3,0,0,0,3-.15l26.61-19.23A1.09,1.09,0,0,0,439.29,296.15Z" style="fill:#C44AD9"></path><path d="M393.65,333.44c.68.46,1.45,1,1.53,1.75a7.53,7.53,0,0,1-1.1,4.54c-1.19,2-1.53,5.33-1.37,7.53s1.11,7.69-1.15,10.41-8.62,5.16-9.45,1.18,3.83-20.91,3.83-20.91Z" style="fill:#263238"></path><path d="M390.54,336.76a60.3,60.3,0,0,0-.86,9.1c0,3.33-.48,5.78-1.93,7s-3.91,1.55-3.45-.81,1.64-14.09,1.64-14.09Z" style="fill:#9a4a4d"></path><path d="M393.86,275.34S383.62,285.3,378,290s-10.87,9.25-11.55,12.23c-.72,3.15,1,7.1,5.07,14.3l8.54,15,8.14-26.36,16.58-15.36Z" style="fill:#37474f"></path><path d="M383.23,358.93c.6.24.81,1.58.95,2.55s1.12,2.1,0,3.88-3.43,2.41-4.92,4.84-2.25,5.75-7.45,7.12-9.29-.18-10.35-1.69-.25-3.05,3-5.13c3.47-2.21,4.45-2.86,4.45-2.86Z" style="fill:#263238"></path><path d="M377.05,348.4s-2.2,7.15-3.59,10.44a26.82,26.82,0,0,1-4.86,8.41c-.56.65-1.83,1.85-2.29,2.38a1,1,0,0,0,.11,1.56c1.15,1.09,6,1.34,8.72-.7s4-4.88,5.6-6.52c.81-.83,1.58-1.61,2.13-2.19a2.2,2.2,0,0,0,.55-2.1c-.06-.21-.12-.46-.19-.75-.38-1.57,1.68-8,1.68-8Z" style="fill:#b16668"></path><path d="M430.18,275.34c2.71,5.85,1.58,12.27-.18,17.64s-8.8,11.28-14.89,14.89-15.46,8-17.28,8.82-2,1.92-1.75,5.41-.93,9.2-4.79,16.36c-4.08,7.55-6.38,12.47-6.38,12.47a8.11,8.11,0,0,1-8.19-2s6.51-34.55,8-39.11,18.66-19.35,18.66-19.35-8.2-9.91-9.57-15.16Z" style="fill:#37474f"></path><path d="M382.38,312.05c.94-4.61,4.32-8.24,7.55-11.32,2.65-2.52,9.44-8.62,11.8-10.74a29,29,0,0,1-1.7-5s1.35,2.42,2.53,4.25h0l.74,1.09.12.16h0l0,.05c-1,.86-17.13,14.88-18.62,19.3-.86,2.53-3.24,14.3-5.2,24.28C379.72,332.63,381.5,316.44,382.38,312.05Z" style="opacity:0.2"></path></g><g id="freepik--Table--inject-2"><path d="M349.28,360.08v66.34a1.65,1.65,0,0,0,.75,1.3l2,1.17a1.67,1.67,0,0,0,1.51,0l2-1.16a1.69,1.69,0,0,0,.75-1.31V360.08a.87.87,0,0,0-.87-.87h-5.31A.87.87,0,0,0,349.28,360.08Z" style="fill:#263238"></path><path d="M355.46,359.21h-1.79a.86.86,0,0,0-.86.87v68.38c0,.48.33.67.75.43l2-1.16a1.69,1.69,0,0,0,.75-1.31V360.08A.87.87,0,0,0,355.46,359.21Z" style="fill:#37474f"></path><path d="M418.19,320.32v66.34a1.65,1.65,0,0,0,.75,1.3l2,1.17a1.65,1.65,0,0,0,1.5,0l2-1.16a1.69,1.69,0,0,0,.75-1.31V320.32a.87.87,0,0,0-.87-.87h-5.31A.87.87,0,0,0,418.19,320.32Z" style="fill:#263238"></path><path d="M424.37,319.45h-1.79a.86.86,0,0,0-.86.87V388.7c0,.48.33.67.75.43l2-1.16a1.69,1.69,0,0,0,.75-1.31V320.32A.87.87,0,0,0,424.37,319.45Z" style="fill:#37474f"></path><path d="M228.73,291.38v65.09a1.67,1.67,0,0,0,.75,1.3l2,1.17a1.67,1.67,0,0,0,1.51,0l2-1.17a1.67,1.67,0,0,0,.75-1.3V291.38a.86.86,0,0,0-.87-.86H229.6A.86.86,0,0,0,228.73,291.38Z" style="fill:#263238"></path><path d="M234.91,290.52h-1.79a.86.86,0,0,0-.87.86V358.5c0,.48.34.68.76.44l2-1.17a1.67,1.67,0,0,0,.75-1.3V291.38A.86.86,0,0,0,234.91,290.52Z" style="fill:#37474f"></path><path d="M350.58,364.45l-128-74a5.24,5.24,0,0,1-2.37-4.1v-.95a5.2,5.2,0,0,1,2.37-4.09l76.67-44.36a5.27,5.27,0,0,1,4.74,0l128,74a5.22,5.22,0,0,1,2.37,4.1V316a5.24,5.24,0,0,1-2.37,4.1l-76.68,44.35A5.25,5.25,0,0,1,350.58,364.45Z" style="fill:#C44AD9"></path><path d="M434.36,315.05V316a5.2,5.2,0,0,1-2.37,4.09l-76.67,44.36A4.8,4.8,0,0,1,353,365v-6.41a4.8,4.8,0,0,0,2.37-.57L432,313.69c1.14-.66,1.29-1.67.43-2.43A5.29,5.29,0,0,1,434.36,315.05Z" style="opacity:0.35000000000000003"></path><path d="M352.94,365a4.85,4.85,0,0,1-2.36-.57l-128-74a5.19,5.19,0,0,1-2.36-4.1v-.94a5.34,5.34,0,0,1,1.92-3.8c-.84.75-.71,1.78.44,2.43l128,74a5.17,5.17,0,0,0,2.36.56Z" style="opacity:0.45"></path><path d="M350.58,358l-128-74c-1.31-.76-1.31-2,0-2.73l76.67-44.36a5.25,5.25,0,0,1,4.73,0l128,74c1.31.75,1.31,2,0,2.73L355.31,358A5.25,5.25,0,0,1,350.58,358Z" style="fill:#C44AD9"></path><path d="M350.58,358l-128-74c-1.31-.76-1.31-2,0-2.73l76.67-44.36a5.25,5.25,0,0,1,4.73,0l128,74c1.31.75,1.31,2,0,2.73L355.31,358A5.25,5.25,0,0,1,350.58,358Z" style="opacity:0.2"></path></g><g id="freepik--Character--inject-2"><path d="M346.31,192.83s-4.28-1.32-7.85,4.3c-1.57,2.48-5.67,9.44-8.37,14-1.47,2.5-2.51,4.3-2.51,4.3s-16.48-8.74-17.4-9.88-.88-3.46-1-4.71a13.6,13.6,0,0,1,.64-4.63c.23-1.6-2.07-1.23-2.8-.59a6.77,6.77,0,0,0-1.18,1.71c-.37.6-1,2.54-1.72,2.66s-1.6-.66-2-1c-1.8-1.37-2.92-3.27-4.31-5a2.43,2.43,0,0,0-1-.86,2.39,2.39,0,0,0-2,.53,4.66,4.66,0,0,0-1.47,1.32,4.16,4.16,0,0,0-.51,1.32c-.72,3.15.88,5.82,2.79,8.2a28.87,28.87,0,0,0,6.74,6c1.5,1,3.48,1.85,5.18,2.77s20.23,16.42,22.81,14.66a45.56,45.56,0,0,0,8.29-8.35,133.45,133.45,0,0,0,8.14-12.89C349.67,198.38,346.31,192.83,346.31,192.83Z" style="fill:#ffa8a7"></path><path d="M353.82,193s-4.71-1.91-7.77-1.72-5.33,1.07-7.57,4.68c-3,4.81-8,13.13-8,13.13a24,24,0,0,0,9.64,10.31l9.13-13.79Z" style="fill:#C44AD9"></path><g style="opacity:0.1"><path d="M353.82,193s-4.71-1.91-7.77-1.72-5.33,1.07-7.57,4.68c-3,4.81-8,13.13-8,13.13a24,24,0,0,0,9.64,10.31l9.13-13.79Z"></path></g><path d="M361.21,192.11c.88.21,8.19,1.93,11.41,3v24.69l-.15,31.58c-5.31,5.78-32,3.15-35.31-9.15v-37c0-5.9,3.28-13,12.34-13.52Z" style="fill:#C44AD9"></path><polygon points="372.62 224.91 369.54 213.95 372.55 235.48 372.62 224.91" style="opacity:0.1"></polygon><path d="M363.76,161.89a4,4,0,0,1,3.34,1.17c1.44,1.47,1.14,4.19,0,10.43l-4.44.51Z" style="fill:#263238"></path><path d="M337.89,160.08a7,7,0,0,1-2.78-.56c-1.36-.79-1.72.76-1,2.11a6.35,6.35,0,0,0,5.15,3.42c0-.19,1.27-3.46,1.27-3.46Z" style="fill:#263238"></path><path d="M361.68,174c.66.4,1.6-.87,2.41-1.72s3.46-2,4.79.78-1.17,6.59-3.26,7.25c-3.6,1.13-4.14-1.18-4.14-1.18l-.27,13a11.6,11.6,0,0,1-8.74,6.63c-6.38.86-5.07-4.4-3-7v-4a23.07,23.07,0,0,1-4.85.25c-2.65-.41-4.31-2.5-5.12-5.37-1.28-4.6-1.77-8.31-.68-17.36,1.2-9.92,12.73-10,19-6.1S361.68,174,361.68,174Z" style="fill:#ffa8a7"></path><path d="M361.68,175.11c.33,0,1.59-2.08,2.41-2.83,1.13-1-.33-10.39-.33-10.39s1.15-3.56-1.1-5.91-6.59-2-9.78-2.07a28.49,28.49,0,0,1-11.37-2.29c-4.52-2-4.86-2.19-5.42-.21s-.77,6.53,1.92,9.58l2.25.82s1.21,1.08,5.42,1.59a62,62,0,0,0,11.68-.22c1.23-.17,1.49,1,2.15,4.26C360.08,170.28,360.56,175.09,361.68,175.11Z" style="fill:#263238"></path><path d="M363.75,162.61l4-2.13a2.2,2.2,0,0,0-3-1A2.37,2.37,0,0,0,363.75,162.61Z" style="fill:#263238"></path><path d="M349.51,187.82s5.91-1.19,8-2.29a6.89,6.89,0,0,0,2.86-2.83,9.39,9.39,0,0,1-1.62,3.34c-1.52,1.93-9.21,3.35-9.21,3.35Z" style="fill:#f28f8f"></path><path d="M348.62,172.47a1.18,1.18,0,1,0,1.18-1.23A1.21,1.21,0,0,0,348.62,172.47Z" style="fill:#263238"></path><path d="M349.87,168l2.53,1.4a1.52,1.52,0,0,0-.59-2A1.41,1.41,0,0,0,349.87,168Z" style="fill:#263238"></path><path d="M348.45,180.65l-2.7,1a1.42,1.42,0,0,0,1.84.9A1.51,1.51,0,0,0,348.45,180.65Z" style="fill:#f28f8f"></path><path d="M339.11,169l2.31-1.78a1.4,1.4,0,0,0-2-.31A1.53,1.53,0,0,0,339.11,169Z" style="fill:#263238"></path><path d="M339.38,171.75a1.21,1.21,0,0,0,1.18,1.23,1.22,1.22,0,0,0,1.18-1.24,1.19,1.19,0,0,0-1.18-1.22A1.21,1.21,0,0,0,339.38,171.75Z" style="fill:#263238"></path><polygon points="345.2 171.01 344.81 178.13 341.09 176.86 345.2 171.01" style="fill:#f28f8f"></polygon><path d="M385.35,235.79c.44-2.11-4.27-23-6.12-29.61l-9.18,9.62,5.46,20.27a73.33,73.33,0,0,1-3,14.63,3.79,3.79,0,0,1-1.77,2c-2.18,1.16-3.12,2.45-4.8,4-1.32,1.21-2.39,1.46-2.26,1.88a2,2,0,0,0,2.54,1.09,14.52,14.52,0,0,0,3.07-1.4,19,19,0,0,1-3.39,5c-3.17,3.39-3.45,5.59,2.47,6,3.7.29,6.81-1.8,10.15-9.78,1-2.3,2.18-5.64,3.09-8.67A140.74,140.74,0,0,0,385.35,235.79Z" style="fill:#ffa8a7"></path><path d="M368.07,208.75c-2.41-5.54-1.21-12,1.47-14.54,6.8,1.16,8.52,4.37,10.39,10.7,2.87,9.75,4.33,16.07,4.33,16.07-1.69,2.27-9.43,5.1-12.61,4.13Z" style="fill:#C44AD9"></path><path d="M368.07,208.75c-2.41-5.54-1.21-12,1.47-14.54,6.8,1.16,8.52,4.37,10.39,10.7,2.87,9.75,4.33,16.07,4.33,16.07-1.69,2.27-9.43,5.1-12.61,4.13Z" style="opacity:0.1"></path></g><path d="M357.13,282.82l18.64,9.82.38.6v.49a.7.7,0,0,1-.38.6L351.2,308.51a1.36,1.36,0,0,1-1.28,0L331.7,298v-.48Z" style="fill:#263238"></path><path d="M350.56,308.19a1.32,1.32,0,0,0,.64-.16l24.57-14.19a.66.66,0,0,0,0-1.2L358,282.35,331.7,297.51,349.92,308A1.32,1.32,0,0,0,350.56,308.19Z" style="fill:#455a64"></path><path d="M358,280.93l17.61,10.17.19.25v1.89h0a.3.3,0,0,1-.19.25L351,307.68a1,1,0,0,1-.88,0L332.5,297.51v-1.89Z" style="fill:#ebebeb"></path><path d="M332.5,295.62l.22.12,2.87,1.66.53.31,14,8.08a1,1,0,0,0,.88,0l24.57-14.19a.26.26,0,0,0,0-.5l-.24-.14-17.38-10-25.23,14.56-.05,0Z" style="fill:#f0f0f0"></path><path d="M350.56,305.89v1.89a.89.89,0,0,0,.44-.1l24.57-14.19a.31.31,0,0,0,.17-.25v-1.89a.31.31,0,0,1-.17.25L351,305.79A.89.89,0,0,1,350.56,305.89Z" style="fill:#e0e0e0"></path><path d="M332.5,295.36l3.18,1.83.49.29,13.95,8a1,1,0,0,0,.88,0l22-12.7c.2-.11.38-.21.55-.32a5.23,5.23,0,0,0,1.78-1.55l0-.06a.49.49,0,0,0,.06-.13.4.4,0,0,0-.31-.45,8.08,8.08,0,0,1-1.66-.69h0L358,280.67Z" style="fill:#fafafa"></path><path d="M335.79,295.14c.22.13.22.34,0,.48a.91.91,0,0,1-.82,0c-.23-.14-.23-.35,0-.48A.91.91,0,0,1,335.79,295.14Z" style="opacity:0.1"></path><path d="M332.6,294.88a2.73,2.73,0,0,0,0,.41l.28-.16a2,2,0,0,1,0-.25,1.12,1.12,0,0,1,.41-1,.6.6,0,0,1,.3-.07,1.05,1.05,0,0,1,.5.15,3,3,0,0,1,1.23,1.76.73.73,0,0,0,.3,0,3.37,3.37,0,0,0-1.38-2,1.08,1.08,0,0,0-1.1-.08A1.4,1.4,0,0,0,332.6,294.88Z" style="fill:#263238"></path><path d="M332.65,295.45s0,.05,0,.07l.05,0Z" style="fill:#263238"></path><path d="M338.25,293.72a.25.25,0,0,1,0,.47.91.91,0,0,1-.82,0,.25.25,0,0,1,0-.47A.91.91,0,0,1,338.25,293.72Z" style="opacity:0.1"></path><path d="M335.06,293.46a2.83,2.83,0,0,0,0,.41l.29-.16a2.29,2.29,0,0,1,0-.25,1.1,1.1,0,0,1,.42-1,.55.55,0,0,1,.29-.08,1.08,1.08,0,0,1,.5.16,3,3,0,0,1,1.23,1.76.73.73,0,0,0,.3,0,3.43,3.43,0,0,0-1.38-2,1.1,1.1,0,0,0-1.1-.07A1.4,1.4,0,0,0,335.06,293.46Z" style="fill:#263238"></path><path d="M340.71,292.3c.23.13.23.34,0,.47a.91.91,0,0,1-.82,0,.25.25,0,0,1,0-.47A.91.91,0,0,1,340.71,292.3Z" style="opacity:0.1"></path><path d="M337.52,292a2.93,2.93,0,0,0,0,.41l.29-.17a1.94,1.94,0,0,1,0-.24,1.13,1.13,0,0,1,.42-1,.6.6,0,0,1,.29-.08.92.92,0,0,1,.5.16,3,3,0,0,1,1.24,1.76,1,1,0,0,0,.3,0,3.47,3.47,0,0,0-1.38-2,1.07,1.07,0,0,0-1.1-.07A1.39,1.39,0,0,0,337.52,292Z" style="fill:#263238"></path><path d="M343.17,290.88c.23.13.23.34,0,.47a.89.89,0,0,1-.81,0c-.23-.13-.23-.34,0-.47A.89.89,0,0,1,343.17,290.88Z" style="opacity:0.1"></path><path d="M340,290.62a2.93,2.93,0,0,0,0,.41l.29-.17a1.93,1.93,0,0,1,0-.24,1.12,1.12,0,0,1,.41-1,.6.6,0,0,1,.29-.08,1.06,1.06,0,0,1,.51.15,3.13,3.13,0,0,1,1.23,1.77,1,1,0,0,0,.3,0,3.47,3.47,0,0,0-1.38-2,1.07,1.07,0,0,0-1.1-.07A1.39,1.39,0,0,0,340,290.62Z" style="fill:#263238"></path><path d="M345.64,289.46a.25.25,0,0,1,0,.47.91.91,0,0,1-.82,0c-.23-.13-.23-.34,0-.47A.85.85,0,0,1,345.64,289.46Z" style="opacity:0.1"></path><path d="M342.44,289.2a2,2,0,0,0,0,.41l.28-.17a1.93,1.93,0,0,1,0-.24,1.12,1.12,0,0,1,.41-1,.61.61,0,0,1,.3-.08,1.05,1.05,0,0,1,.5.15,3.09,3.09,0,0,1,1.23,1.76.75.75,0,0,0,.3,0,3.39,3.39,0,0,0-1.38-2,1.08,1.08,0,0,0-1.1-.08A1.42,1.42,0,0,0,342.44,289.2Z" style="fill:#263238"></path><path d="M348.1,288a.26.26,0,0,1,0,.48.91.91,0,0,1-.82,0,.25.25,0,0,1,0-.48A.91.91,0,0,1,348.1,288Z" style="opacity:0.1"></path><path d="M344.91,287.78a2.69,2.69,0,0,0,0,.4l.28-.16a1.93,1.93,0,0,1,0-.24,1.15,1.15,0,0,1,.41-1,.6.6,0,0,1,.3-.07,1.05,1.05,0,0,1,.5.15,3,3,0,0,1,1.23,1.76.73.73,0,0,0,.3,0,3.39,3.39,0,0,0-1.38-2,1.08,1.08,0,0,0-1.1-.08A1.4,1.4,0,0,0,344.91,287.78Z" style="fill:#263238"></path><path d="M350.56,286.61a.26.26,0,0,1,0,.48.91.91,0,0,1-.82,0,.26.26,0,0,1,0-.48A.91.91,0,0,1,350.56,286.61Z" style="opacity:0.1"></path><path d="M347.37,286.36a2.69,2.69,0,0,0,0,.4l.29-.16a1.94,1.94,0,0,1,0-.24,1.11,1.11,0,0,1,.42-1,.57.57,0,0,1,.29-.07,1,1,0,0,1,.5.15,3.11,3.11,0,0,1,1.24,1.76.77.77,0,0,0,.3,0,3.42,3.42,0,0,0-1.39-2,1.06,1.06,0,0,0-1.09-.08A1.41,1.41,0,0,0,347.37,286.36Z" style="fill:#263238"></path><path d="M353,285.19c.23.13.23.34,0,.47a.83.83,0,0,1-.81,0c-.23-.13-.23-.34,0-.47A.89.89,0,0,1,353,285.19Z" style="opacity:0.1"></path><path d="M349.83,284.93a2.83,2.83,0,0,0,0,.41l.29-.16a2.09,2.09,0,0,1,0-.25,1.12,1.12,0,0,1,.41-1,.6.6,0,0,1,.29-.08,1.08,1.08,0,0,1,.51.16,3.14,3.14,0,0,1,1.23,1.76.75.75,0,0,0,.3,0,3.41,3.41,0,0,0-1.38-2,1.08,1.08,0,0,0-1.1-.08A1.4,1.4,0,0,0,349.83,284.93Z" style="fill:#263238"></path><path d="M355.48,283.77c.23.13.23.34,0,.47a.89.89,0,0,1-.81,0c-.23-.13-.23-.34,0-.47A.89.89,0,0,1,355.48,283.77Z" style="opacity:0.1"></path><path d="M352.29,283.51a2.83,2.83,0,0,0,0,.41l.29-.17a1.93,1.93,0,0,1,0-.24,1.12,1.12,0,0,1,.41-1,.61.61,0,0,1,.3-.08,1.08,1.08,0,0,1,.5.16,3,3,0,0,1,1.23,1.76,1,1,0,0,0,.3,0,3.47,3.47,0,0,0-1.38-2,1.1,1.1,0,0,0-1.1-.07A1.39,1.39,0,0,0,352.29,283.51Z" style="fill:#263238"></path><path d="M358,282.35a.25.25,0,0,1,0,.47.91.91,0,0,1-.82,0c-.23-.13-.23-.34,0-.47A.91.91,0,0,1,358,282.35Z" style="opacity:0.1"></path><path d="M354.76,282.09a2.93,2.93,0,0,0,0,.41l.28-.17a1.93,1.93,0,0,1,0-.24,1.12,1.12,0,0,1,.41-1,.61.61,0,0,1,.3-.08,1.05,1.05,0,0,1,.5.15,3,3,0,0,1,1.23,1.77,1,1,0,0,0,.3,0,3.43,3.43,0,0,0-1.38-2,1.07,1.07,0,0,0-1.1-.07A1.38,1.38,0,0,0,354.76,282.09Z" style="fill:#263238"></path><path d="M353,303a.23.23,0,0,1-.14,0l-13.55-7.83a.28.28,0,0,1-.11-.39.29.29,0,0,1,.39-.1l13.56,7.83a.29.29,0,0,1-.15.53Z" style="fill:#ebebeb"></path><path d="M354.66,302.06a.27.27,0,0,1-.14,0L341,294.2a.29.29,0,0,1-.11-.39.29.29,0,0,1,.39-.11l13.56,7.83a.29.29,0,0,1,.1.39A.29.29,0,0,1,354.66,302.06Z" style="fill:#ebebeb"></path><path d="M356.31,301.11a.28.28,0,0,1-.15,0l-13.55-7.82a.29.29,0,0,1,.28-.5l13.56,7.83a.29.29,0,0,1,.1.39A.28.28,0,0,1,356.31,301.11Z" style="fill:#ebebeb"></path><path d="M358,300.16l-.15,0-13.55-7.83a.28.28,0,1,1,.29-.49l13.55,7.82a.28.28,0,0,1-.14.53Z" style="fill:#ebebeb"></path><path d="M359.59,299.22a.33.33,0,0,1-.14,0l-13.56-7.83a.28.28,0,1,1,.29-.49l13.55,7.83a.27.27,0,0,1,.1.38A.26.26,0,0,1,359.59,299.22Z" style="fill:#ebebeb"></path><path d="M361.23,298.27a.23.23,0,0,1-.14,0l-13.56-7.83a.28.28,0,0,1-.1-.38.28.28,0,0,1,.39-.11l13.55,7.83a.28.28,0,0,1,.11.39A.3.3,0,0,1,361.23,298.27Z" style="fill:#ebebeb"></path><path d="M362.87,297.32a.23.23,0,0,1-.14,0l-13.56-7.82a.29.29,0,0,1,.29-.5L363,296.79a.28.28,0,0,1-.14.53Z" style="fill:#ebebeb"></path><path d="M364.51,296.37a.25.25,0,0,1-.14,0l-13.55-7.82a.28.28,0,1,1,.28-.49l13.56,7.82a.29.29,0,0,1,.1.39A.29.29,0,0,1,364.51,296.37Z" style="fill:#ebebeb"></path><path d="M366.16,295.43a.42.42,0,0,1-.15,0l-13.55-7.83a.28.28,0,1,1,.28-.49l13.56,7.82a.29.29,0,0,1-.14.54Z" style="fill:#ebebeb"></path><path d="M367.8,294.48a.28.28,0,0,1-.15,0l-13.55-7.83a.28.28,0,0,1-.1-.39.28.28,0,0,1,.38-.1L367.94,294a.27.27,0,0,1,.1.38A.27.27,0,0,1,367.8,294.48Z" style="fill:#ebebeb"></path><path d="M369.44,293.53a.23.23,0,0,1-.14,0l-13.56-7.82a.29.29,0,0,1-.1-.39.28.28,0,0,1,.39-.11L369.58,293a.28.28,0,0,1,.1.39A.27.27,0,0,1,369.44,293.53Z" style="fill:#ebebeb"></path><path d="M371.08,292.58a.23.23,0,0,1-.14,0l-13.56-7.82a.29.29,0,0,1,.29-.5l13.55,7.83a.28.28,0,0,1,.11.39A.3.3,0,0,1,371.08,292.58Z" style="fill:#ebebeb"></path><path d="M372.72,291.63a.32.32,0,0,1-.14,0L359,283.77a.29.29,0,0,1-.1-.39.28.28,0,0,1,.39-.1l13.55,7.82a.28.28,0,0,1-.14.53Z" style="fill:#ebebeb"></path><path d="M351.36,304a.42.42,0,0,1-.15,0l-14.33-8.29a.29.29,0,1,1,.28-.5l14.34,8.29a.29.29,0,0,1-.14.54Z" style="fill:#C44AD9"></path><g style="opacity:0.25"><path d="M344.52,293.9a2,2,0,0,0,.69-.71.67.67,0,0,1,.3-.07c.4.05.07.21,0,.36a.07.07,0,0,0,.08.08c.28,0,.94-.21.76.24,0,0,0,.08,0,.08s.46.08.42.18,0,.08.06.08a8.42,8.42,0,0,1,.87,0,4,4,0,0,1,.4.05c.09.11-.05.33-.09.4s0,.08,0,.1.26.16.16.32,0,.09,0,.1c.38.1,1-.21,1.15.24.07.28,0,.34.37.31.06,0,.1-.12,0-.12-.36,0-.09-.42-.29-.56s-.71.13-.93,0,0-.16-.09-.32-.13,0-.15-.06-.06-.06-.07-.06a.16.16,0,0,0,0-.1c0-.07.05-.07.06-.11.08-.42-.59-.32-.86-.34a3.79,3.79,0,0,1-.49,0s0-.1,0-.11-.4-.15-.4-.17.08-.15,0-.24-.58-.1-.75-.09h-.13a.15.15,0,0,0,.12-.12c0-.05,0-.09,0-.16s-.13-.14-.25-.15a.76.76,0,0,0-.35.07.66.66,0,0,0,.05-.38c-.1-.41-.56-.11-.8,0-.06,0-.07.13,0,.11s.39-.18.52-.16.06.37-.07.57l-.27.14a1.18,1.18,0,0,0-.55.35C344,294,344.25,294,344.52,293.9Zm.14-.43a1.08,1.08,0,0,0,.21-.11.89.89,0,0,1-.35.37s-.29.11-.21,0A.89.89,0,0,1,344.66,293.47Z" style="fill:#455a64"></path><path d="M350.36,297.18s0,.05,0,.05c.32.1.62-.27.73-.65.12,0,.37-.05.41.14a1.45,1.45,0,0,0-.06.19,0,0,0,0,0,0,.06c.18,0,.74-.2.65.1a.06.06,0,0,0,0,.07c.14.1.46-.07.51.15s-.2.2-.08.35.25,0,.35,0,.13-.09.2-.06,0,.07,0,.1,0,.08.08.11.11,0,.16,0,.07-.06.11-.06a.51.51,0,0,1,.22.06s.31.14.28.08-.14.24,0,.36.57,0,.69,0,.12-.13,0-.13l-.33,0c-.28-.12-.21-.21-.15-.35s0-.09-.06-.08-.32-.18-.46-.17-.2.08-.23.08c-.23,0-.12-.07-.12-.22s-.05-.06-.08-.05-.46.31-.47,0c0,0,.14-.13.15-.19s-.05-.18-.18-.21a.7.7,0,0,0-.28,0c-.35,0-.05,0-.17-.1a.34.34,0,0,0-.33-.1c-.06,0-.18,0-.23,0s-.06,0-.07-.12.07-.15,0-.25-.15-.16-.31-.13a1.3,1.3,0,0,0-.31.11c0-.26,0-.47-.29-.47-.06,0-.12.12,0,.14s.18.23.13.43C350.67,296.67,350.38,296.93,350.36,297.18Zm.31-.24c0-.05.12-.14.22-.22a.39.39,0,0,1,0,.09C350.82,296.86,350.61,297.13,350.67,296.94Z" style="fill:#455a64"></path><path d="M346.37,298.76a2,2,0,0,0,.69-.71.71.71,0,0,1,.31-.08c.4.06.06.21,0,.36s0,.1.07.09c.28,0,1-.21.77.24a.06.06,0,0,0,0,.08c.09,0,.47.08.42.17a.07.07,0,0,0,.06.09,8.61,8.61,0,0,1,.88,0,1.68,1.68,0,0,1,.4.05c.09.1-.06.33-.1.4a.07.07,0,0,0,0,.1c.15.07.26.16.16.32a.07.07,0,0,0,0,.1c.38.1,1.05-.21,1.16.24.06.27,0,.34.36.31.06,0,.11-.12,0-.13-.36,0-.1-.41-.3-.55s-.7.13-.93,0,0-.16-.09-.32-.13,0-.15-.07-.05-.05-.06-.05,0,0,0-.1,0-.07.05-.12c.09-.41-.58-.31-.85-.34a2.77,2.77,0,0,1-.5,0s0-.1,0-.12-.39-.14-.4-.16.09-.15,0-.24-.57-.1-.74-.09h-.13s.11,0,.11-.11,0-.09,0-.16-.14-.14-.25-.15a.77.77,0,0,0-.36.07.67.67,0,0,0,.06-.38c-.1-.41-.57-.11-.81,0,0,0-.07.14,0,.12a1.6,1.6,0,0,1,.53-.16c.22,0,.05.37-.08.57l-.26.14a1.22,1.22,0,0,0-.56.35C345.84,298.81,346.11,298.9,346.37,298.76Zm.15-.43.2-.11a1,1,0,0,1-.34.37s-.3.1-.21,0A.69.69,0,0,1,346.52,298.33Z" style="fill:#455a64"></path><path d="M341.27,295.73s0,0,0,.06c.32.1.62-.28.73-.65.12,0,.37-.05.41.13l-.07.2s0,0,.06.06c.18,0,.73-.21.65.1a.05.05,0,0,0,0,.07c.14.1.46-.07.5.15s-.19.2-.08.35.26,0,.36,0,.13-.09.2-.07,0,.08,0,.11.05.08.09.1.1,0,.16,0,.07-.06.11-.07a1.16,1.16,0,0,1,.22.06s.31.15.28.09-.14.23,0,.36.56,0,.69,0,.12-.14,0-.13l-.33,0c-.28-.12-.21-.21-.15-.35s0-.09-.06-.08-.32-.18-.46-.18a1.85,1.85,0,0,0-.23.09c-.23,0-.12-.07-.12-.22a.07.07,0,0,0-.08-.05c-.13.05-.46.31-.47,0,0,0,.14-.13.15-.19s-.05-.19-.18-.22a.9.9,0,0,0-.28,0c-.35.06,0,0-.17-.09a.34.34,0,0,0-.33-.1,2,2,0,0,1-.23,0c-.19-.05-.06,0-.07-.13s.07-.15,0-.24-.16-.16-.31-.13a1.58,1.58,0,0,0-.31.1c0-.25,0-.47-.29-.46-.06,0-.13.12,0,.13s.18.24.13.44C341.58,295.23,341.29,295.49,341.27,295.73Zm.31-.23c0-.05.11-.14.22-.22a.29.29,0,0,1,0,.08C341.73,295.42,341.51,295.69,341.58,295.5Z" style="fill:#455a64"></path><path d="M354.53,288.37a2.13,2.13,0,0,0,.69-.71.71.71,0,0,1,.31-.08c.39.06.06.21,0,.36s0,.1.07.09c.28,0,.95-.21.77.24a.06.06,0,0,0,0,.08c.09,0,.47.08.42.17s0,.09.06.08a8.68,8.68,0,0,1,.88,0,1.68,1.68,0,0,1,.4.05c.08.1-.06.33-.1.4a.07.07,0,0,0,0,.1c.15.07.26.16.16.32a.06.06,0,0,0,0,.09c.38.11,1.05-.2,1.15.25.07.27,0,.34.37.31.06,0,.11-.13,0-.13-.36,0-.1-.41-.3-.55s-.7.13-.93,0,0-.16-.09-.32-.13,0-.15-.07-.06-.06-.07-.05a.23.23,0,0,0,0-.11c0-.07.05-.06.06-.11.09-.42-.58-.31-.86-.34a2.66,2.66,0,0,1-.49,0s0-.1,0-.12l-.4-.16s.09-.16,0-.24-.57-.1-.74-.1h-.13a.13.13,0,0,0,.11-.11c0-.06,0-.09,0-.16s-.14-.14-.26-.15a.76.76,0,0,0-.35.07.59.59,0,0,0,.05-.38c-.09-.41-.56-.11-.8,0-.05,0-.07.14,0,.12a1.55,1.55,0,0,1,.52-.16c.22,0,.06.37-.07.57l-.26.14a1.14,1.14,0,0,0-.56.35C354,288.42,354.27,288.51,354.53,288.37Zm.15-.43.2-.11a1,1,0,0,1-.35.37s-.29.1-.21,0A.76.76,0,0,1,354.68,287.94Z" style="fill:#455a64"></path><path d="M360.37,291.64a.07.07,0,0,0,0,.06c.32.1.62-.28.73-.65.12,0,.37-.05.42.13a1.5,1.5,0,0,0-.07.2s0,.05.06.06.73-.21.64.1a.07.07,0,0,0,0,.07c.15.09.46-.07.51.15s-.2.2-.08.35.25,0,.36,0,.12-.09.19-.07,0,.08,0,.11,0,.08.08.1.11,0,.16,0,.08-.07.12-.07a1.41,1.41,0,0,1,.22.06s.31.14.28.09-.15.23,0,.36.57,0,.7,0,.11-.14,0-.14l-.33,0c-.28-.13-.2-.21-.15-.35s0-.09-.05-.09-.32-.17-.47-.17-.2.09-.23.09c-.22,0-.11-.07-.12-.22a.06.06,0,0,0-.08-.05c-.13,0-.46.31-.47,0,0-.05.14-.13.15-.2s0-.18-.18-.21a.84.84,0,0,0-.27,0c-.36.06-.06,0-.18-.09s-.13-.11-.33-.1a1.8,1.8,0,0,1-.22,0c-.2-.05-.07,0-.08-.13s.08-.15,0-.24-.15-.16-.31-.13a1.22,1.22,0,0,0-.31.1c0-.26,0-.47-.29-.46-.06,0-.12.12,0,.13s.18.24.13.44C360.68,291.14,360.39,291.39,360.37,291.64Zm.31-.23a.81.81,0,0,1,.23-.22.56.56,0,0,1-.05.08C360.83,291.33,360.62,291.6,360.68,291.41Z" style="fill:#455a64"></path><path d="M356.38,293.23a2.2,2.2,0,0,0,.7-.72.62.62,0,0,1,.3-.07c.4.06.06.21,0,.36s0,.09.08.09c.27-.05.94-.21.76.24a.06.06,0,0,0,0,.08c.08,0,.46.07.42.17a.05.05,0,0,0,.05.08,8.55,8.55,0,0,1,.88,0,2.35,2.35,0,0,1,.4,0c.09.11-.06.33-.1.41a.07.07,0,0,0,0,.1c.15.06.27.15.17.31s0,.09,0,.1c.38.11,1.05-.21,1.16.24.06.28,0,.34.36.31.06,0,.11-.12,0-.12-.36,0-.09-.41-.3-.55s-.7.12-.93,0,0-.15-.09-.32-.12,0-.15-.06-.05-.06-.06-.06l0-.1c0-.07,0-.07.05-.11.09-.42-.58-.32-.85-.34a4.15,4.15,0,0,1-.5,0s0-.1,0-.12-.39-.15-.4-.16.09-.16,0-.25-.58-.1-.75-.09h-.13a.14.14,0,0,0,.12-.12c0-.05,0-.08,0-.16s-.14-.13-.25-.14a.94.94,0,0,0-.36.06.58.58,0,0,0,.06-.38c-.1-.41-.56-.11-.8,0-.06,0-.08.14,0,.11s.4-.18.53-.15.05.37-.07.57l-.27.13a1.15,1.15,0,0,0-.55.36C355.85,293.27,356.12,293.36,356.38,293.23Zm.15-.44.21-.1a1.13,1.13,0,0,1-.35.37s-.29.1-.21,0A.83.83,0,0,1,356.53,292.79Z" style="fill:#455a64"></path><path d="M351.28,290.2a.07.07,0,0,0,0,.06c.32.1.62-.28.73-.65.12,0,.37-.05.42.13a1.31,1.31,0,0,0-.07.19s0,.06.06.07.73-.21.64.1a0,0,0,0,0,0,.06c.14.1.46-.07.51.16s-.2.2-.08.35.25,0,.35,0,.13-.1.2-.07,0,.07,0,.11,0,.08.08.1.11,0,.16,0,.08-.06.11-.06a.71.71,0,0,1,.22.06s.32.14.28.09-.14.23,0,.36.57,0,.7,0,.11-.14,0-.14a3,3,0,0,1-.33,0c-.28-.12-.2-.2-.15-.34s0-.09-.06-.09-.32-.17-.46-.17-.2.09-.23.09c-.22,0-.12-.07-.12-.23s-.05-.06-.08,0-.46.31-.47,0c0,0,.14-.12.15-.19s-.05-.18-.18-.21a.63.63,0,0,0-.27,0c-.36.06-.06,0-.18-.09a.34.34,0,0,0-.33-.11,1,1,0,0,1-.22,0c-.2-.05-.07,0-.08-.13s.07-.15,0-.25-.15-.15-.31-.12a1.22,1.22,0,0,0-.31.1c0-.26,0-.47-.29-.46-.06,0-.12.12,0,.13s.18.24.13.43C351.59,289.7,351.3,290,351.28,290.2Zm.31-.23a.81.81,0,0,1,.23-.23l-.05.09C351.74,289.88,351.53,290.15,351.59,290Z" style="fill:#455a64"></path><path d="M355.35,296.57a2.25,2.25,0,0,0,.7-.71.54.54,0,0,1,.3-.08c.4.06.06.21,0,.36a.07.07,0,0,0,.08.09c.27-.05.94-.21.76.24a.06.06,0,0,0,0,.08c.08,0,.46.08.42.17s0,.09.05.08a8.55,8.55,0,0,1,.88,0,1.62,1.62,0,0,1,.4.05c.09.1-.05.33-.1.4a.07.07,0,0,0,0,.1c.15.07.27.15.17.31s0,.09,0,.1c.37.11,1-.2,1.15.25.06.27,0,.34.36.31.07,0,.11-.13,0-.13-.36,0-.09-.41-.3-.55s-.7.13-.92,0,0-.15-.1-.31-.12,0-.15-.07-.05-.06-.06-.05,0,0,0-.11,0-.06,0-.11c.09-.42-.58-.32-.85-.34a4.16,4.16,0,0,1-.5,0s0-.1,0-.12l-.4-.16s.09-.16.05-.24-.58-.1-.75-.1h-.13a.13.13,0,0,0,.12-.11c0-.06,0-.09,0-.16s-.14-.14-.25-.15a.94.94,0,0,0-.36.06.56.56,0,0,0,.06-.37c-.1-.41-.56-.12-.8,0-.06,0-.08.14,0,.11s.4-.18.53-.15.05.37-.07.57l-.27.13a1.15,1.15,0,0,0-.55.36C354.82,296.62,355.09,296.71,355.35,296.57Zm.15-.43.21-.11a1.13,1.13,0,0,1-.35.37s-.29.1-.21,0A.78.78,0,0,1,355.5,296.14Z" style="fill:#455a64"></path><path d="M351.12,293.85s0,0,0,0c.32.1.62-.27.73-.65.11,0,.37-.05.41.14l-.07.19a.06.06,0,0,0,.06.06c.18,0,.73-.2.64.1,0,0,0,.06,0,.07s.47-.07.51.15-.19.21-.08.35.26,0,.36,0,.13-.1.2-.07,0,.07,0,.1,0,.09.08.11.11,0,.17,0,.07-.06.11-.06a.55.55,0,0,1,.22.06s.31.14.28.08-.14.24,0,.37.56,0,.69,0,.12-.14,0-.14l-.33,0c-.28-.12-.21-.21-.16-.35s0-.09,0-.08-.32-.18-.46-.17a2,2,0,0,0-.23.08c-.23,0-.12-.07-.13-.22s0-.06-.08-.05-.45.31-.46,0c0,0,.14-.13.15-.19s0-.18-.18-.21a.68.68,0,0,0-.28,0c-.35.05-.05,0-.17-.1a.34.34,0,0,0-.33-.1c-.06,0-.18,0-.23,0s-.06,0-.07-.12.07-.15,0-.25-.16-.16-.32-.13l-.3.11c0-.26,0-.47-.29-.47-.07,0-.13.13,0,.14s.18.24.13.43C351.43,293.34,351.14,293.6,351.12,293.85Zm.31-.24c0-.05.11-.14.22-.22a.39.39,0,0,1,0,.09S351.36,293.8,351.43,293.61Z" style="fill:#455a64"></path><path d="M348,290.72a.85.85,0,0,1,0,.39.07.07,0,0,0,.06.07c.18,0,.74-.21.65.1a0,0,0,0,0,0,.06c.14.1.46-.07.5.16s-.19.2-.08.35.26,0,.36,0,.13-.1.2-.07,0,.07,0,.11.05.08.09.1.1,0,.16,0,.07-.06.11-.06a.71.71,0,0,1,.22.06s.31.14.28.09-.14.23,0,.36.56,0,.69,0,.12-.14,0-.14l-.33,0c-.28-.12-.21-.2-.15-.34s0-.09-.06-.09-.32-.17-.46-.17a1.85,1.85,0,0,0-.23.09c-.23,0-.12-.07-.12-.23a.07.07,0,0,0-.08-.05c-.13.05-.46.31-.47,0,0,0,.14-.12.15-.19s-.05-.18-.18-.21a.68.68,0,0,0-.28,0c-.35.06,0,0-.17-.09a.34.34,0,0,0-.33-.11,1,1,0,0,1-.23,0c-.19-.05-.06,0-.07-.13s.07-.15,0-.25-.26-.26-.31-.07a.11.11,0,0,0,0,.08A.29.29,0,0,0,348,290.72Z" style="fill:#455a64"></path></g><path d="M361.27,276c.08-1.69.87-1.51,2.23-1.95l2.59-.84q3.56-1.16,7.1-2.35c3-1,6.05-2,9-3.15,1.54-.56,3.68-1,5-2.12,2.15-1.79,8.11-16.47,8.84-17.61,2-3.05,6.25-25.17,6.25-25.17-4-.93-7.94,2.41-10,6.73s-10.88,26.27-10.88,26.27q-4.95,2.53-9.91,5.1c-3.29,1.7-6.59,3.39-9.87,5.1-2.85,1.49-6.21,2.65-8.41,5a14.35,14.35,0,0,0-3.3,4.72,7.7,7.7,0,0,0,.15,5.39,8.81,8.81,0,0,0,3.52,4.13,2.3,2.3,0,0,0,1.84.44.55.55,0,0,0,.32-.2.74.74,0,0,0,.13-.44c.09-1.25,0-2.51,0-3.77,0-1.09.12-4,1.7-3.78" style="fill:#b16668"></path><g id="freepik--Pencil--inject-2"><path d="M356.49,287.75l3.23,4.6a.18.18,0,0,0,.32-.09l.23-5.65Z" style="fill:#ffa8a7"></path><path d="M360,292.29s0,0,0,0l.23-5.65-2,.6.2.67,1.37,4.35Z" style="fill:#f28f8f"></path><path d="M360,292.26a.18.18,0,0,1-.32.09l-.63-.9h0a.93.93,0,0,0,.93-.32l.07-.08Z" style="fill:#263238"></path><path d="M353.6,263.84l.14.5.18.6,6.35,21.67a2.49,2.49,0,0,1-1.38,1.21,2.61,2.61,0,0,1-2.4-.07l-6.34-21.65-.34-1.16C350.07,265.68,353.85,264.58,353.6,263.84Z" style="fill:#455a64"></path><path d="M353.6,263.84l.14.5.18.6,6.35,21.67a2.68,2.68,0,0,1-1.78,1.35l-6.85-22.87c-.07,0-.1,0-.08,0C352.62,264.78,353.74,264.26,353.6,263.84Z" style="fill:#37474f"></path><path d="M354.16,265.74l.33,1.12c.1.32-.53.73-1.3,1-1,.41-2.36.48-2.5.06l-.24-.82-.08-.3c.14.42,1.47.35,2.49-.06.75-.29,1.36-.68,1.31-1h0Z" style="fill:#ebebeb"></path><path d="M354.24,266c.24.74-3.55,1.83-3.79,1.09l-.33-1.12c.24.75,4-.34,3.79-1.09Z" style="fill:#37474f"></path><path d="M353.6,263.84l.32,1.1c.25.73-3.4,1.81-3.77,1.16,0,0,0,0,0,0l-.32-1.12C350.07,265.68,353.85,264.58,353.6,263.84Z" style="fill:#ebebeb"></path><path d="M359.92,292.41a.17.17,0,0,0,.11-.12A.15.15,0,0,1,359.92,292.41Z" style="fill:#ffa8a7"></path><path d="M352.22,259.17l1.38,4.67c.1.32-.52.73-1.28,1-1,.41-2.36.5-2.51.07h0l-1.38-4.69c-.27-.94,1.56-1.72,2.8-1.66A1,1,0,0,1,352.22,259.17Z" style="fill:#f28f8f"></path><path d="M351.49,260.29a3,3,0,0,1-2.69.31.65.65,0,0,1-.39-.5c-.05-.87,1.64-1.57,2.82-1.51a1,1,0,0,1,1,.56C352.31,259.5,352.06,259.93,351.49,260.29Z" style="opacity:0.1"></path></g><path d="M395.91,251.47c-.5,4.66-2.26,24.07-2.26,24.07,10.05,8.1,32.45,6.32,36.53-.2a81.7,81.7,0,0,1-4.43-14l3-13.05s-7.15-6.5,0-19.79l-9.45-2.83-17-2.87s-6.27,9-8.14,13.78C392.94,239.65,390.54,245.14,395.91,251.47Z" style="fill:#C44AD9"></path><path d="M427.13,266.73c-.1-.36-.2-.7-.29-1-.73-2.63-1.09-4.39-1.09-4.39l3-13.05h0l0,0v0a3.6,3.6,0,0,1-.3-.32h0c-.95-1.1-3.39-4.55-2.69-10.42h0s-2.05,7.51.61,11.41l-2.51,11.31-3.65,5.3,4.42-1.73A78.24,78.24,0,0,1,426.3,272c.11,1.59-3.65,6.85-11.68,8.87,7.18-.32,13.56-2.37,15.56-5.56h0A76.51,76.51,0,0,1,427.13,266.73Z" style="opacity:0.15"></path><path d="M427.64,228.14a10.33,10.33,0,0,1,6.89,5.09c1.3,2.56,5.56,9.25,8.2,13.75l2.46,4.21s16.13-8.56,17-9.67.85-3.39,1-4.62a13.31,13.31,0,0,0-.63-4.53c-.22-1.56,2-1.2,2.74-.58a6.37,6.37,0,0,1,1.16,1.68c.35.58,1,2.48,1.68,2.6s1.57-.65,2-1c1.78-1.34,2.87-3.2,4.23-4.89a2.5,2.5,0,0,1,1-.85,2.33,2.33,0,0,1,2,.52,4.5,4.5,0,0,1,1.45,1.29,3.93,3.93,0,0,1,.49,1.3c.71,3.08-.86,5.7-2.73,8a27.89,27.89,0,0,1-6.6,5.84c-1.47,1-3.41,1.81-5.07,2.72s-19.81,16.08-22.34,14.36a61.38,61.38,0,0,1-8.12-8.19c-3.57-4.35-5.69-7-5.69-7C421.76,242.07,427.64,228.14,427.64,228.14Z" style="fill:#b16668"></path><path d="M420,215.63l-.29,11.6a10.9,10.9,0,0,0,10.9,11.17h.29V226.52A10.89,10.89,0,0,0,420,215.63Z" style="fill:#263238"></path><path d="M409.34,218.26l6.19.16a15.62,15.62,0,0,0,16.05-15.19h0A18.72,18.72,0,0,0,413.37,184h0a18.72,18.72,0,0,0-19.22,18.2h0A15.63,15.63,0,0,0,409.34,218.26Z" style="fill:#263238"></path><path d="M428.53,194.14l4.65-1.63a2.39,2.39,0,0,0-3.08-1.59A2.6,2.6,0,0,0,428.53,194.14Z" style="fill:#263238"></path><path d="M428.58,192.94l1.43-4.71a2.38,2.38,0,0,0-3.09,1.54A2.59,2.59,0,0,0,428.58,192.94Z" style="fill:#263238"></path><path d="M401.61,192.08c-2,1.11-4.58,6-4.63,16.45,0,8.83,2.77,11.09,4.19,11.76s4.21.36,6.91,0l0,3.66s-4.86,5.31-4.7,7.75,6.22,3.7,9.77,1.42a28.51,28.51,0,0,0,6.62-6.77l.27-12.25s1.54,1.59,4.29-.69c2.28-1.88,3.11-5.13,1.43-6.94a3.87,3.87,0,0,0-6.19,1.06s-4.3,0-9.94-3.26A16.1,16.1,0,0,1,401.61,192.08Z" style="fill:#b16668"></path><path d="M405.8,206.1a1.11,1.11,0,1,0,2.21.16,1.13,1.13,0,0,0-1-1.23A1.12,1.12,0,0,0,405.8,206.1Z" style="fill:#263238"></path><path d="M406.41,214.05l-2.61.76a1.34,1.34,0,0,0,1.66,1A1.43,1.43,0,0,0,406.41,214.05Z" style="fill:#9a4a4d"></path><path d="M397.89,202.19l2.29-1.49a1.3,1.3,0,0,0-1.85-.44A1.43,1.43,0,0,0,397.89,202.19Z" style="fill:#263238"></path><path d="M397.83,204.94a1.11,1.11,0,1,0,2.21.17,1.11,1.11,0,0,0-1-1.23A1.13,1.13,0,0,0,397.83,204.94Z" style="fill:#263238"></path><polygon points="402.93 204.82 402.8 212.06 399.31 210.87 402.93 204.82" style="fill:#9a4a4d"></polygon><path d="M408.08,220.28c2.85-.3,8.74-1.82,9.72-4.1a6,6,0,0,1-2.13,2.89c-1.79,1.45-7.63,3-7.63,3Z" style="fill:#9a4a4d"></path><path d="M357.6,277.5c0,.87-.29,2.29-.25,3.16a3.64,3.64,0,0,0,.89,2.41,1.3,1.3,0,0,0,1.46.39,1.68,1.68,0,0,0,.68-1.14,27.88,27.88,0,0,0,.89-6.24V276" style="fill:#b16668"></path></g><g id="freepik--Board--inject-2"><polygon points="125.09 310.05 125.09 308.05 89.5 328.64 91.2 329.64 125.09 310.05" style="fill:#37474f"></polygon><path d="M86.71,181.51a.48.48,0,0,1,.23.51L57.45,313l-.85,3.71a2.24,2.24,0,0,1-1.17-.23l0,0-2-1.14a.5.5,0,0,1-.23-.52l30.28-134.4a.47.47,0,0,1,.7-.3Z" style="fill:#37474f"></path><path d="M90.41,179.72,60,314.75a.75.75,0,0,1-.37.51l-2,1.15a2,2,0,0,1-1,.25l.85-3.71L87,181.68Z" style="fill:#455a64"></path><path d="M87.81,354.7v3.91a2.29,2.29,0,0,1-1.1-.26h0l-1.84-1.06a.77.77,0,0,1-.44-.64V239.39l3.4,2Z" style="fill:#37474f"></path><path d="M91.2,239.4V356.69a.79.79,0,0,1-.46.59l-1.82,1.06a2.23,2.23,0,0,1-1.11.27V241.35Z" style="fill:#455a64"></path><path d="M131.81,333.2a2.18,2.18,0,0,1-1.05-.31l-1.89-1.09a.94.94,0,0,1-.47-.65L108.18,225.66l3.39,2,19.52,101.78Z" style="fill:#37474f"></path><path d="M135.2,331.22v0a.79.79,0,0,1-.47.64l-1.72,1-.09.05a2.36,2.36,0,0,1-1.11.26l-.72-3.79L111.57,227.63l3.41-2,20.19,105.4v0Z" style="fill:#455a64"></path><polygon points="90.03 334.21 128.48 312.01 128.48 308.1 90.03 330.3 90.03 334.21" style="fill:#455a64"></polygon><path d="M47.26,270.15v1.41a2.41,2.41,0,0,0,1.09,1.88L59.74,280a2.44,2.44,0,0,0,2.17,0l75.76-43.69a2.37,2.37,0,0,0,1.08-1.87V233a2.37,2.37,0,0,0-1.08-1.87l-11.39-6.58a2.37,2.37,0,0,0-2.17,0L48.35,268.27A2.41,2.41,0,0,0,47.26,270.15Z" style="fill:#C44AD9"></path><path d="M48.35,269.52l11.39,6.58a2.37,2.37,0,0,0,2.17,0l75.76-43.68c.6-.35.6-.91,0-1.25l-11.39-6.58a2.37,2.37,0,0,0-2.17,0L48.35,268.27C47.75,268.62,47.75,269.18,48.35,269.52Z" style="fill:#fff;opacity:0.4"></path><path d="M60.82,276.36v3.92a2.33,2.33,0,0,1-1.08-.26l-11.39-6.58a2.41,2.41,0,0,1-1.09-1.88v-1.41a2.39,2.39,0,0,1,.87-1.72c-.37.34-.3.8.22,1.1l11.39,6.57A2.21,2.21,0,0,0,60.82,276.36Z" style="opacity:0.1"></path><path d="M55.62,273.73l-3.16-1.83a4.34,4.34,0,0,1-1.93-3.13L44,155.51a3.73,3.73,0,0,1,1.69-3.13L120,109.54a4,4,0,0,1,3.62,0l3.17,1.83a4.29,4.29,0,0,1,1.92,3.13l6.54,113.26a3.72,3.72,0,0,1-1.68,3.13L59.24,273.73A4,4,0,0,1,55.62,273.73Z" style="fill:#e0e0e0"></path><path d="M128.66,114.18c-.19-.92-1-1.25-1.89-.73L52.46,156.3a3.37,3.37,0,0,0-1.25,1.36l-6.78-3.91a3.51,3.51,0,0,1,1.25-1.36L120,109.54a4,4,0,0,1,3.6,0l3.19,1.84A4.33,4.33,0,0,1,128.66,114.18Z" style="fill:#fafafa"></path><path d="M50.77,159.42l6.54,113.27a1.19,1.19,0,0,0,1.93,1l74.32-42.85a3.72,3.72,0,0,0,1.68-3.13L128.7,114.49a1.18,1.18,0,0,0-1.92-1L52.46,156.3A3.68,3.68,0,0,0,50.77,159.42Z" style="fill:#f0f0f0"></path><path d="M63.17,171.81c1.12-.65,2-.13,2,1.17a4.46,4.46,0,0,1-2,3.51c-1.12.65-2,.13-2-1.17A4.49,4.49,0,0,1,63.17,171.81Z" style="fill:#455a64"></path><path d="M71.42,167l40.36-23.29c1.19-.69,2.16-.2,2.16,1.09a4.64,4.64,0,0,1-2.17,3.6l-40.36,23.3c-1.19.69-2.16.2-2.16-1.1A4.71,4.71,0,0,1,71.42,167Z" style="fill:#455a64"></path><path d="M63.85,182.67c1.12-.65,2-.13,2,1.17a4.51,4.51,0,0,1-2,3.52c-1.12.64-2,.12-2-1.17A4.55,4.55,0,0,1,63.85,182.67Z" style="fill:#455a64"></path><path d="M72.11,177.9l40.35-23.3c1.2-.69,2.17-.2,2.17,1.09a4.64,4.64,0,0,1-2.17,3.6L72.1,182.59c-1.2.69-2.17.2-2.16-1.09A4.64,4.64,0,0,1,72.11,177.9Z" style="fill:#455a64"></path><path d="M64.54,193.53c1.12-.65,2-.13,2,1.17a4.49,4.49,0,0,1-2,3.52c-1.12.65-2,.12-2-1.17A4.49,4.49,0,0,1,64.54,193.53Z" style="fill:#455a64"></path><path d="M72.79,188.76l40.36-23.3c1.19-.69,2.16-.2,2.16,1.1a4.64,4.64,0,0,1-2.17,3.59L72.78,193.46c-1.19.69-2.16.19-2.16-1.1A4.69,4.69,0,0,1,72.79,188.76Z" style="fill:#455a64"></path><path d="M65.22,204.39c1.12-.65,2-.12,2,1.17a4.49,4.49,0,0,1-2,3.52c-1.12.65-2,.12-2-1.17A4.56,4.56,0,0,1,65.22,204.39Z" style="fill:#455a64"></path><path d="M73.48,199.62l40.35-23.3c1.2-.69,2.17-.2,2.17,1.1a4.64,4.64,0,0,1-2.17,3.59L73.47,204.32c-1.2.69-2.17.2-2.16-1.1A4.64,4.64,0,0,1,73.48,199.62Z" style="fill:#455a64"></path><path d="M65.91,215.26c1.12-.65,2-.13,2,1.16a4.48,4.48,0,0,1-2,3.52c-1.12.65-2,.13-2-1.17A4.47,4.47,0,0,1,65.91,215.26Z" style="fill:#455a64"></path><path d="M74.16,210.48l40.36-23.29c1.19-.69,2.16-.2,2.16,1.09a4.64,4.64,0,0,1-2.17,3.6l-40.36,23.3c-1.19.69-2.16.2-2.16-1.1A4.71,4.71,0,0,1,74.16,210.48Z" style="fill:#455a64"></path><path d="M66.59,226.12c1.12-.65,2-.13,2,1.17a4.47,4.47,0,0,1-2,3.51c-1.12.65-2,.13-2-1.16A4.55,4.55,0,0,1,66.59,226.12Z" style="fill:#455a64"></path><path d="M74.85,221.35l40.35-23.3c1.2-.69,2.17-.2,2.17,1.09a4.64,4.64,0,0,1-2.17,3.6L74.84,226c-1.2.69-2.17.2-2.16-1.1A4.64,4.64,0,0,1,74.85,221.35Z" style="fill:#455a64"></path><path d="M111.53,123v6.08a1.67,1.67,0,0,1-.76,1.31L71.61,153a1.67,1.67,0,0,1-1.51,0L68.22,152a1.66,1.66,0,0,1-.75-1.31v-3l-6.79-3.91-3.38,2v-7a1.69,1.69,0,0,1,.75-1.32l39.16-22.61a1.69,1.69,0,0,1,1.52,0l12,7A1.67,1.67,0,0,1,111.53,123Z" style="fill:#263238"></path><path d="M111.53,123v6.08a1.67,1.67,0,0,1-.76,1.31L71.62,153a1.61,1.61,0,0,1-.76.18V145.4a1.7,1.7,0,0,0,.76-.18l39.15-22.62c.37-.21.41-.54.14-.78A1.68,1.68,0,0,1,111.53,123Z" style="fill:#37474f"></path><path d="M58.05,138.26l12,7a1.69,1.69,0,0,0,1.52,0l39.15-22.61a.46.46,0,0,0,0-.87l-12-7a1.69,1.69,0,0,0-1.52,0L58.05,137.38C57.63,137.63,57.63,138,58.05,138.26Z" style="fill:#455a64"></path><path d="M130.57,231.89h0l-.18-.27,0-.09,0,0a2.11,2.11,0,0,0-.19-.23l-.17-.18-.16-.14a2.27,2.27,0,0,0-1-.47l-19.53,11.31-.55.32-.45.26-4.21,2.44a1,1,0,0,0-.33,1.1c.24,1.22,1.43,2.81,2.28,2.33l4.23-2.46h0a.4.4,0,0,0,.1-.12.23.23,0,0,1-.1.12l1-.6,19.53-11.3A2.34,2.34,0,0,0,130.57,231.89Zm-22.1,10.43h0Z" style="fill:#455a64"></path><path d="M105.37,245.24a3.08,3.08,0,0,1,.94,2.54.73.73,0,0,1-.39.51c-.83.25-1.91-1.23-2.14-2.39a1,1,0,0,1,.31-1.08C104.41,244.64,104.89,244.77,105.37,245.24Z" style="fill:#37474f"></path></g><g id="freepik--character-1--inject-2"><g id="freepik--character--inject-2"><path d="M180.17,126.62h2.95a16.54,16.54,0,0,1,16.54,16.54v20.66a0,0,0,0,1,0,0H177.1a13.47,13.47,0,0,1-13.47-13.47v-7.19a16.54,16.54,0,0,1,16.54-16.54Z" style="fill:#C44AD9"></path><g style="opacity:0.45"><path d="M180.17,126.62h2.95a16.54,16.54,0,0,1,16.54,16.54v20.66a0,0,0,0,1,0,0H177.1a13.47,13.47,0,0,1-13.47-13.47v-7.19a16.54,16.54,0,0,1,16.54-16.54Z"></path></g><path d="M170.88,339.76V338.6c.46,1.36,2.58,7.21,5.79,10.14,2.56,2.33,6,5,6.93,7.61s-4.85,3.61-7.24,3.19c-2.77-.49-6.36-2.06-8.31-4.46-1.37-1.69-2.25-3.69-3.23-5s-3.24-2.81-3.77-4.35c-.29-.84.06-2.69.47-4.25s.78-3,1.27-2.87v.88a6.32,6.32,0,0,0,4,1.37C168,340.9,170.89,340.66,170.88,339.76Z" style="fill:#263238"></path><path d="M179,350.79c-.79-.71-1.59-1.4-2.31-2.06-2.24-2.05-3.95-5.52-4.94-7.89a11.13,11.13,0,0,1-.85-4.26V332h-8.09v7.52h0v.2l0,0c.39,1.68,4.1,6.16,6.21,9.07,1.42,2,4.11,4.45,7.32,4.88C179.41,354.06,181,353.1,179,350.79Z" style="fill:#ffa8a7"></path><path d="M199.47,331.78v-1.16c.45,1.36,2.57,7.2,5.78,10.13,2.56,2.33,6,5,6.93,7.62s-4.85,3.61-7.24,3.19c-2.77-.49-6.36-2.07-8.31-4.46-1.37-1.69-2.25-3.69-3.23-5s-3.24-2.8-3.77-4.34c-.29-.84.06-2.69.47-4.25s.78-3,1.27-2.87v.88a6.41,6.41,0,0,0,4,1.37C196.6,332.92,199.48,332.68,199.47,331.78Z" style="fill:#263238"></path><path d="M207.57,342.8c-.8-.7-1.59-1.39-2.32-2.05-2.24-2.05-3.95-5.52-4.93-7.89a11,11,0,0,1-.85-4.26V324h-8.1v7.51h0v.2l0,0c.39,1.68,4.11,6.15,6.22,9.07,1.41,2,4.1,4.45,7.31,4.88C208,346.07,209.55,345.11,207.57,342.8Z" style="fill:#ffa8a7"></path><path d="M164.4,213.92c-6.28,13.71.22,62,.22,62-.18,2.22-2.73,6.6-3.68,16.39C159.82,303.89,162.7,333,162.7,333a8.75,8.75,0,0,0,8.18.32s7.72-43.76,9.17-55.26c1.27-10,3.7-32.12,3.7-32.12L187.66,278a59,59,0,0,0-2.19,9.9c-.66,6.77,5.9,38.28,5.9,38.28s2.79,1,8.1.24c0,0,2.32-41.81,2.93-50,1-13.69.39-56.41-2.12-64.51Z" style="fill:#C44AD9"></path><path d="M183.75,245.89l2-12.73s8.62-1.79,12.53-5.46a22.28,22.28,0,0,1-10.2,6.77l-2.28,9.81,1.56,31.54Z" style="opacity:0.1"></path><path d="M188.87,165.91a11.61,11.61,0,0,1,10.3,4.61l15.65,20.38s18.28-9.14,19.18-10.23.39-3.28.14-4.48-.65-3.89-.92-4.64c-.47-1.32,1.47-1,2.62.26s1.65,3.64,2.23,4.05,4.92-4.59,7-7,3.1-4.11,4.51-3.11c1,.72.37,2.15-1.15,4.22a26.61,26.61,0,0,0-2,2.74c-.18.37.38.66.6.86.41.37,1.14,1,1.19,1.54a5.86,5.86,0,0,0,0,.94c.2.69,1.05,1,1.29,1.68.18.49,0,1,.08,1.55.07.32.25.62.31.95a2.34,2.34,0,0,1-.68,1.78c-1.48,1.76-3.51,2.43-5.45,3.51-1.62.89-3.29,1.29-5.15,2.11s-23.46,15.8-26.87,13.91-21.07-22.41-21.07-22.41C185.72,170.7,188.87,165.91,188.87,165.91Z" style="fill:#ffa8a7"></path><path d="M175.47,166.28h0c-8.05.56-8.61,4.44-10.63,8.69a13.81,13.81,0,0,0-.38,10.38l5.61,16.22s-2.62,6.35-5.67,12.35c14.07,7.85,31.65,3.72,35.88-2,.18-1.22-.91-10.72-1.58-16.93,2.48-6.22,3.13-10.16,2.09-14.27-1.94-7.63-9.48-15.07-12.82-14.79Z" style="fill:#455a64"></path><path d="M163.26,132.41l2.44,3.91a2.24,2.24,0,0,1-3.17-.65A2.41,2.41,0,0,1,163.26,132.41Z" style="fill:#C44AD9"></path><path d="M160.59,136.87l4.57-.64a2.23,2.23,0,0,1-1.88,2.63A2.42,2.42,0,0,1,160.59,136.87Z" style="fill:#C44AD9"></path><path d="M165.7,136.32l-2.44-3.91a2.41,2.41,0,0,0-.73,3.26,2.11,2.11,0,0,0,.88.8l-2.82.4a2.42,2.42,0,0,0,2.69,2,2.22,2.22,0,0,0,1.91-2.29A2.19,2.19,0,0,0,165.7,136.32Z" style="opacity:0.45"></path><path d="M193.74,133.91c1.9,1.12,4.26,5.91,4,15.94-.19,8.5-2.95,10.6-4.33,11.21s-4.06.23-6.65-.2V166s3.59,4.17,3.36,6.51-5.18,2.89-8.53.6a21.6,21.6,0,0,1-5.51-5.76V155s-1.75,2.33-4.62.43-3-6.61-1.3-8.3,5.25-1.16,5.92,1.18c0,0,4.14.15,9.65-2.88A15.48,15.48,0,0,0,193.74,133.91Z" style="fill:#ffa8a7"></path><path d="M187.32,147.71a1.07,1.07,0,1,1-1.12-1.06A1.11,1.11,0,0,1,187.32,147.71Z" style="fill:#263238"></path><path d="M188.56,154.92l2.48.79a1.28,1.28,0,0,1-1.62.89A1.36,1.36,0,0,1,188.56,154.92Z" style="fill:#f28f8f"></path><path d="M196.08,144.43l-2.16-1.5a1.27,1.27,0,0,1,1.8-.37A1.38,1.38,0,0,1,196.08,144.43Z" style="fill:#263238"></path><path d="M195.59,146.94a1.07,1.07,0,1,1-1.13-1.06A1.1,1.1,0,0,1,195.59,146.94Z" style="fill:#263238"></path><polygon points="190.36 146.33 190.53 152.76 193.92 151.71 190.36 146.33" style="fill:#f28f8f"></polygon><path d="M186.78,160.86c-2.73-.36-8.36-2-9.24-4.2a5.81,5.81,0,0,0,2,2.84c1.68,1.44,7.26,3.06,7.26,3.06Z" style="fill:#f28f8f"></path><path d="M179.07,215.44a8.49,8.49,0,0,1-6.33-10.36,2.69,2.69,0,0,1,.14-.45,2.77,2.77,0,0,1,2.85-1.89h0a8.23,8.23,0,0,1-3.52-5.24l-1.71-10.17a11.92,11.92,0,0,1,.43-4.93l-5.65-6.54-1.05.72a14.15,14.15,0,0,0,.23,8.77l5.61,16.22a91.53,91.53,0,0,0-5.67,12.35,36.43,36.43,0,0,0,30.07,2A41,41,0,0,1,179.07,215.44Z" style="fill:#37474f"></path><path d="M150,206.67c7.31-29.87,12.71-39.83,21.59-39.71,2.59,3.09,1.87,12.45-2.22,18.13,0,0-9.13,19.26-10.59,26.11-1.28,6-2.73,13.58-2.64,18.76a3.8,3.8,0,0,0,1,2.46c1.67,1.8,1.67,3.26,2.75,5.26.85,1.56,1.77,2.15,1.51,2.5a2,2,0,0,1-2.74.2,10.27,10.27,0,0,1-2.08-2,20.93,20.93,0,0,0,1.65,5.54c1.87,4.23,1.42,6.38-4.29,4.88-3.57-.94-5.82-3.92-6.35-12.51a65.92,65.92,0,0,1-.1-9.51C148.27,218.64,148.82,211.48,150,206.67Z" style="fill:#ffa8a7"></path></g></g><g id="freepik--speach-bubbles--inject-2"><path d="M426.24,172.63l3.93-2.27a.39.39,0,0,0,.19-.17l.72-1.26-2.33-1.35.07.21Z" style="fill:#C44AD9"></path><path d="M426.24,172.63l3.93-2.27a.39.39,0,0,0,.19-.17l.72-1.26-2.33-1.35.07.21Z" style="opacity:0.2"></path><path d="M429.1,167.77l-2.72,4.72a.4.4,0,0,1-.73-.07l-2.88-8.3Z" style="fill:#C44AD9"></path><path d="M396.82,136.08a4.21,4.21,0,0,1,1.9-3.3l1.55-.89a4.17,4.17,0,0,1,3.8,0L440.64,153a4.19,4.19,0,0,1,1.9,3.29v10.87a4.19,4.19,0,0,1-1.9,3.29l-1.55.9a4.26,4.26,0,0,1-3.81,0l-36.74-21.25a3,3,0,0,1-1.72-3.17Z" style="fill:#C44AD9"></path><path d="M442.54,167.17a4.19,4.19,0,0,1-1.9,3.29l-1.55.9a4.3,4.3,0,0,1-3.48.16c.89.33,1.58-.18,1.58-1.26V159.39a3.92,3.92,0,0,0-.56-1.87l5.35-3.09a3.78,3.78,0,0,1,.56,1.87Z" style="opacity:0.2"></path><path d="M396.88,135.54c.22-.81,1-1.07,1.84-.56l36.57,21.12a3.83,3.83,0,0,1,1.34,1.42l5.35-3.09a3.91,3.91,0,0,0-1.34-1.42l-36.56-21.12a4.26,4.26,0,0,0-3.81,0l-1.55.9A4.17,4.17,0,0,0,396.88,135.54Z" style="fill:#fff;opacity:0.4"></path><path d="M432.09,159.1c0,.73-.54,1-1.21.62L413.2,149.49a2.6,2.6,0,0,1-1.21-2c0-.73.54-1,1.21-.61l17.68,10.22A2.6,2.6,0,0,1,432.09,159.1Z" style="fill:#fafafa"></path><path d="M432.09,164.94c0,.73-.54,1-1.21.61l-27.26-15.79a2.6,2.6,0,0,1-1.21-2c0-.72.54-1,1.21-.61l27.26,15.79A2.6,2.6,0,0,1,432.09,164.94Z" style="fill:#fafafa"></path><path d="M426.24,136.62l3.93-2.27a.39.39,0,0,0,.19-.17l.72-1.26-2.33-1.35.07.21Z" style="fill:#C44AD9"></path><path d="M426.24,136.62l3.93-2.27a.39.39,0,0,0,.19-.17l.72-1.26-2.33-1.35.07.21Z" style="opacity:0.2"></path><path d="M429.1,131.76l-2.72,4.72a.4.4,0,0,1-.73-.07l-2.88-8.31Z" style="fill:#C44AD9"></path><path d="M396.82,100.06a4.21,4.21,0,0,1,1.9-3.29l1.55-.9a4.24,4.24,0,0,1,3.8,0L440.64,117a4.22,4.22,0,0,1,1.9,3.3v10.86a4.21,4.21,0,0,1-1.9,3.3l-1.55.89a4.19,4.19,0,0,1-3.81,0l-36.74-21.25a2.94,2.94,0,0,1-1.72-3.16Z" style="fill:#C44AD9"></path><path d="M442.54,131.15a4.21,4.21,0,0,1-1.9,3.3l-1.55.89a4.22,4.22,0,0,1-3.48.16c.89.34,1.58-.17,1.58-1.26V123.38a4,4,0,0,0-.56-1.88l5.35-3.09a3.85,3.85,0,0,1,.56,1.88Z" style="opacity:0.2"></path><path d="M396.88,99.52c.22-.8,1-1.06,1.84-.56l36.57,21.13a3.76,3.76,0,0,1,1.34,1.42l5.35-3.09a3.83,3.83,0,0,0-1.34-1.42L404.08,95.88a4.19,4.19,0,0,0-3.81,0l-1.55.89A4.22,4.22,0,0,0,396.88,99.52Z" style="fill:#fff;opacity:0.4"></path><path d="M432.09,123.09c0,.72-.54,1-1.21.61L413.2,113.47a2.57,2.57,0,0,1-1.21-2c0-.72.54-1,1.21-.61l17.68,10.23A2.6,2.6,0,0,1,432.09,123.09Z" style="fill:#fafafa"></path><path d="M432.09,128.93c0,.72-.54,1-1.21.61l-27.26-15.79a2.6,2.6,0,0,1-1.21-2c0-.73.54-1,1.21-.61l27.26,15.79A2.6,2.6,0,0,1,432.09,128.93Z" style="fill:#fafafa"></path><path d="M178.82,113.48l-3.94-2.27a.31.31,0,0,1-.18-.16l-.73-1.26,2.34-1.35-.07.2Z" style="fill:#C44AD9"></path><path d="M178.82,113.48l-3.94-2.27a.31.31,0,0,1-.18-.16l-.73-1.26,2.34-1.35-.07.2Z" style="fill:#263238"></path><path d="M176,108.63l2.73,4.71a.4.4,0,0,0,.73-.07l2.88-8.3Z" style="fill:#37474f"></path><path d="M208.24,76.93a4.19,4.19,0,0,0-1.9-3.29l-1.55-.9a4.26,4.26,0,0,0-3.81,0L164.42,93.86a4.21,4.21,0,0,0-1.9,3.3V108a4.21,4.21,0,0,0,1.9,3.3l1.55.89a4.17,4.17,0,0,0,3.8,0L206.51,91a3,3,0,0,0,1.73-3.16Z" style="fill:#37474f"></path><path d="M162.52,108a4.21,4.21,0,0,0,1.9,3.3l1.55.89a4.26,4.26,0,0,0,3.48.16c-.9.34-1.58-.17-1.58-1.26V100.25a3.85,3.85,0,0,1,.56-1.88l-5.36-3.09a3.94,3.94,0,0,0-.55,1.88Z" style="fill:#263238"></path><path d="M208.17,76.39c-.22-.81-.95-1.06-1.83-.56L169.77,97a3.91,3.91,0,0,0-1.34,1.42l-5.35-3.08a3.83,3.83,0,0,1,1.34-1.42L201,72.74a4.26,4.26,0,0,1,3.81,0l1.55.9A4.2,4.2,0,0,1,208.17,76.39Z" style="fill:#455a64"></path><path d="M180.53,95.12c0,.62.46.85,1,.52l20.51-11.86a2.23,2.23,0,0,0,1-1.73c0-.62-.47-.86-1-.52L181.57,93.39A2.21,2.21,0,0,0,180.53,95.12Z" style="fill:#f0f0f0"></path><path d="M172.28,106c0,.62.47.86,1,.52l28.76-16.65a2.23,2.23,0,0,0,1-1.73c0-.62-.47-.85-1-.52l-28.76,16.65A2.23,2.23,0,0,0,172.28,106Z" style="fill:#f0f0f0"></path><path d="M178.82,78.11l-3.94-2.27a.31.31,0,0,1-.18-.16L174,74.42l2.34-1.35-.07.2Z" style="fill:#C44AD9"></path><path d="M178.82,78.11l-3.94-2.27a.31.31,0,0,1-.18-.16L174,74.42l2.34-1.35-.07.2Z" style="fill:#263238"></path><path d="M176,73.26,178.68,78a.4.4,0,0,0,.73-.07l2.88-8.3Z" style="fill:#37474f"></path><path d="M208.24,41.56a4.19,4.19,0,0,0-1.9-3.29l-1.55-.9a4.26,4.26,0,0,0-3.81,0L164.42,58.49a4.21,4.21,0,0,0-1.9,3.3V72.65a4.21,4.21,0,0,0,1.9,3.3l1.55.89a4.17,4.17,0,0,0,3.8,0l36.74-21.25a3,3,0,0,0,1.73-3.16Z" style="fill:#37474f"></path><path d="M162.52,72.65a4.21,4.21,0,0,0,1.9,3.3l1.55.89a4.26,4.26,0,0,0,3.48.16c-.9.34-1.58-.17-1.58-1.26V64.88a3.85,3.85,0,0,1,.56-1.88l-5.36-3.09a3.94,3.94,0,0,0-.55,1.88Z" style="fill:#263238"></path><path d="M208.18,41c-.23-.81-1-1.06-1.84-.56L169.77,61.58A3.91,3.91,0,0,0,168.43,63l-5.35-3.08a3.83,3.83,0,0,1,1.34-1.42L201,37.37a4.26,4.26,0,0,1,3.81,0l1.55.9A4.23,4.23,0,0,1,208.18,41Z" style="fill:#455a64"></path><path d="M180.53,59.75c0,.62.47.85,1,.52l20.51-11.86a2.23,2.23,0,0,0,1-1.73c0-.62-.47-.86-1-.52L181.57,58A2.21,2.21,0,0,0,180.53,59.75Z" style="fill:#f0f0f0"></path><path d="M172.28,70.59c0,.62.47.86,1,.52l28.76-16.65a2.23,2.23,0,0,0,1-1.73c0-.62-.47-.85-1-.52L173.32,68.86A2.23,2.23,0,0,0,172.28,70.59Z" style="fill:#f0f0f0"></path><path d="M355.58,141.83l3.93-2.27a.31.31,0,0,0,.18-.16l.73-1.26-2.34-1.35.07.2Z" style="fill:#C44AD9"></path><path d="M355.58,141.83l3.93-2.27a.31.31,0,0,0,.18-.16l.73-1.26-2.34-1.35.07.2Z" style="fill:#e0e0e0"></path><path d="M358.44,137l-2.72,4.71a.41.41,0,0,1-.74-.07l-2.88-8.3Z" style="fill:#ebebeb"></path><path d="M326.15,105.28a4.2,4.2,0,0,1,1.91-3.29l1.54-.9a4.26,4.26,0,0,1,3.81,0L370,122.21a4.21,4.21,0,0,1,1.9,3.3v10.86a4.22,4.22,0,0,1-1.9,3.3l-1.55.89a4.17,4.17,0,0,1-3.8,0l-36.74-21.25a3,3,0,0,1-1.73-3.16Z" style="fill:#e6e6e6"></path><path d="M353.86,123.47c0,.62-.46.85-1,.52l-20.51-11.86a2.25,2.25,0,0,1-1-1.73c0-.62.47-.86,1-.52l20.51,11.86A2.21,2.21,0,0,1,353.86,123.47Z" style="fill:#fff"></path><path d="M362.11,134.31c0,.62-.47.86-1,.52l-28.76-16.65a2.23,2.23,0,0,1-1-1.73c0-.62.47-.86,1-.52l28.76,16.65A2.23,2.23,0,0,1,362.11,134.31Z" style="fill:#fff"></path><path d="M371.87,136.37a4.22,4.22,0,0,1-1.9,3.3l-1.55.89a4.23,4.23,0,0,1-3.47.16c.89.34,1.57-.17,1.57-1.26V128.6a3.94,3.94,0,0,0-.55-1.88l5.35-3.09a3.94,3.94,0,0,1,.55,1.88Z" style="fill:#e0e0e0"></path><path d="M326.22,104.74c.22-.81.95-1.06,1.83-.56l36.57,21.12a3.91,3.91,0,0,1,1.34,1.42l5.35-3.08a3.68,3.68,0,0,0-1.34-1.42l-36.56-21.13a4.24,4.24,0,0,0-3.8,0l-1.56.9A4.18,4.18,0,0,0,326.22,104.74Z" style="fill:#f0f0f0"></path><path d="M355.58,106.89l3.93-2.28a.31.31,0,0,0,.18-.16l.73-1.26-2.34-1.35.07.2Z" style="fill:#C44AD9"></path><path d="M355.58,106.89l3.93-2.28a.31.31,0,0,0,.18-.16l.73-1.26-2.34-1.35.07.2Z" style="fill:#e0e0e0"></path><path d="M358.44,102l-2.72,4.71a.41.41,0,0,1-.74-.06l-2.88-8.31Z" style="fill:#ebebeb"></path><path d="M326.15,70.33A4.2,4.2,0,0,1,328.06,67l1.54-.9a4.26,4.26,0,0,1,3.81,0L370,87.26a4.21,4.21,0,0,1,1.9,3.3v10.86a4.21,4.21,0,0,1-1.9,3.3l-1.55.89a4.17,4.17,0,0,1-3.8,0L327.88,84.36a3,3,0,0,1-1.73-3.16Z" style="fill:#e6e6e6"></path><path d="M353.86,88.52c0,.62-.46.86-1,.52L332.31,77.18a2.23,2.23,0,0,1-1-1.73c0-.62.47-.86,1-.52l20.51,11.86A2.21,2.21,0,0,1,353.86,88.52Z" style="fill:#fff"></path><path d="M362.11,99.36c0,.62-.47.86-1,.52L332.31,83.23a2.23,2.23,0,0,1-1-1.73c0-.62.47-.85,1-.52l28.76,16.65A2.23,2.23,0,0,1,362.11,99.36Z" style="fill:#fff"></path><path d="M371.87,101.42a4.21,4.21,0,0,1-1.9,3.3l-1.55.89a4.23,4.23,0,0,1-3.47.16c.89.34,1.57-.17,1.57-1.26V93.65a3.94,3.94,0,0,0-.55-1.88l5.35-3.09a3.94,3.94,0,0,1,.55,1.88Z" style="fill:#e0e0e0"></path><path d="M326.22,69.79c.22-.81.95-1.06,1.83-.56l36.57,21.12A3.91,3.91,0,0,1,366,91.77l5.35-3.08A3.68,3.68,0,0,0,370,87.27L333.41,66.14a4.24,4.24,0,0,0-3.8,0l-1.56.9A4.2,4.2,0,0,0,326.22,69.79Z" style="fill:#f0f0f0"></path><path d="M355.58,71.94l3.93-2.28a.31.31,0,0,0,.18-.16l.73-1.26-2.34-1.35.07.21Z" style="fill:#C44AD9"></path><path d="M355.58,71.94l3.93-2.28a.31.31,0,0,0,.18-.16l.73-1.26-2.34-1.35.07.21Z" style="fill:#e0e0e0"></path><path d="M358.44,67.08l-2.72,4.72a.41.41,0,0,1-.74-.07l-2.88-8.31Z" style="fill:#ebebeb"></path><path d="M326.15,35.38a4.22,4.22,0,0,1,1.91-3.29l1.54-.9a4.26,4.26,0,0,1,3.81,0L370,52.31a4.22,4.22,0,0,1,1.9,3.3V66.47a4.21,4.21,0,0,1-1.9,3.3l-1.55.89a4.17,4.17,0,0,1-3.8,0L327.88,49.41a3,3,0,0,1-1.73-3.16Z" style="fill:#e6e6e6"></path><path d="M353.86,53.57c0,.62-.46.86-1,.52L332.31,42.23a2.23,2.23,0,0,1-1-1.73c0-.62.47-.85,1-.52l20.51,11.86A2.21,2.21,0,0,1,353.86,53.57Z" style="fill:#fff"></path><path d="M362.11,64.41c0,.62-.47.86-1,.53L332.31,48.29a2.26,2.26,0,0,1-1-1.73c0-.63.47-.86,1-.53l28.76,16.65A2.25,2.25,0,0,1,362.11,64.41Z" style="fill:#fff"></path><path d="M371.87,66.47a4.21,4.21,0,0,1-1.9,3.3l-1.55.89a4.23,4.23,0,0,1-3.47.16c.89.34,1.57-.17,1.57-1.26V58.7a3.94,3.94,0,0,0-.55-1.88l5.35-3.09a3.94,3.94,0,0,1,.55,1.88Z" style="fill:#e0e0e0"></path><path d="M326.22,34.84c.22-.8.95-1.06,1.83-.56l36.57,21.13A3.76,3.76,0,0,1,366,56.83l5.35-3.09A3.68,3.68,0,0,0,370,52.32L333.41,31.2a4.17,4.17,0,0,0-3.8,0l-1.56.89A4.2,4.2,0,0,0,326.22,34.84Z" style="fill:#f0f0f0"></path></g></svg>